<svg version="1" xmlns="http://www.w3.org/2000/svg" width="969.333" height="969.333" viewBox="0 0 727.000000 727.000000"><path d="M105.5 79.5c-3.2 3.1-3.5 10.1-.6 13.6 1.9 2.3 2.4 2.4 22.3 2.9 19.8.5 20.5.6 27.9 3.6 16 6.5 29.4 17.8 44 37.4 4.3 5.8 7.9 10.8 7.9 11.2 0 .5-27.4.8-60.8.8-67.2 0-67.1 0-75.4 6.3-2.4 1.8-5.7 5.6-7.4 8.4-7 11.8-43.1 103-50.9 128.8-7.2 24.1-7 20.5-7 124v93l2.6 6.7c4.1 10.5 8.7 17.5 17.4 26.3 12.2 12.4 25.3 20.4 39 24 5.3 1.3 41.6 1.5 330.1 1.5h324.2l3.1-2.6c1.7-1.4 3.5-4.2 4.1-6.2.6-2.3 1-21.7 1-50.5 0-52.3.1-51.7-6.8-55.4-2.3-1.2-7.4-2.5-13.4-3.2-44.6-5.2-94.8-19.8-134.3-39.1-36.6-17.9-63-36.7-93.8-67-52.1-51.1-82.2-93.8-100.2-142-10.2-27.2-19-39-35-46.7-12.3-5.8-16.6-6.3-60.2-6.3-31.4 0-39.3-.3-39.3-1.3 0-1.9 8.9-17 13.5-22.8 6.3-8 16.1-15.6 27-20.9 14.4-7 19.2-8 39.3-8 16.5 0 17.2-.1 19.8-2.3 2.3-2 2.7-3.2 2.7-7.2s-.4-5.2-2.7-7.2l-2.7-2.3h-233l-2.4 2.5zm151 19.7c-12.6 9.9-24.7 25.7-29.2 37.8l-2.6 7.1-2.7-6.8c-3.9-10.1-10.6-19.8-21.5-31.2L190.8 96H260.5l-4 3.2zm50.1 83.7c6.5 4 9.9 10 25.2 45.6 16.6 38.6 19.4 47.5 17.2 55.4-1.4 5.4-4.6 8.6-9.8 10-2.8.8-46.4 1-145.9.9-135-.3-142-.4-145.1-2.1-2-1.1-4.2-3.5-5.4-6-1.1-2.3-2.5-5.3-3.3-6.6-2-3.6.7-11.8 17.6-53.1 15.1-36.8 16.8-40 23.4-44.1 2.9-1.8 7.3-1.9 113-1.9 106 0 110.1.1 113.1 1.9zm105.1 132.7c5.5 6.5 16.2 17.9 23.7 25.2l13.6 13.4v46.5c0 36.8-.3 46.4-1.2 46-6.5-2.5-27-11.6-33.8-15l-8.5-4.2-4.2-59.5c-2.3-32.7-4.2-61.8-4.2-64.5v-5l2.2 2.6c1.2 1.4 6.8 8 12.4 14.5zm78.9 71.1c8.9 6.6 18.6 13.3 21.8 14.8l5.6 2.7v35.4c0 26.5-.3 35.4-1.2 35.4-2.2 0-31.9-10-38.3-12.9l-6.5-3v-43.2c0-34.4.3-42.9 1.3-42.2.6.6 8.4 6.4 17.3 13zM90.3 402.3c8.5 5 11.8 12.2 11.8 25.7 0 19-7.9 27.7-26 28.8-20.5 1.1-30.7-7.2-31.8-26.2-1-14.8 3.6-24.3 14.2-29.3 4.5-2.1 6.1-2.4 16-2.1 10 .3 11.5.6 15.8 3.1zm220.3-.6c5.1 2.7 9.8 7.9 11.5 13 .9 2.3 1.4 7.8 1.4 13.8-.1 8.4-.5 10.8-2.4 14.8-4.9 10-14.2 14.3-29.2 13.5-15.6-.9-23.6-7.8-25.9-22-2.3-14.7 2.3-27.8 11.5-32.5 5.4-2.8 7.9-3.2 18.5-3 8.4.2 11.3.7 14.6 2.4zm232.7 17c2.9 1.4 12 5.4 20.2 8.8l15 6.2.3 30.2c.2 28.5.1 30.2-1.5 29.7-1-.3-3.8-1-6.3-1.6-2.5-.6-11.1-3.2-19.2-5.7l-14.8-4.6v-32.9c0-18 .2-32.8.5-32.8s2.9 1.2 5.8 2.7zm85.5 32.9c.9.2 1.2 6.5 1.2 27v26.6l-4.2-.7c-7.9-1.2-25.2-4.7-27.5-5.6l-2.3-.9v-56.7l15.8 4.9c8.6 2.7 16.3 5.1 17 5.4zm26.4 6.8c4 .8 10.3 1.8 14.1 2.2l6.7.7v53l-7.2-.7c-7.3-.8-18.8-2.9-22-4.1-1.7-.7-1.8-2.9-1.8-27.2 0-22.7.2-26.4 1.4-26 .8.3 4.8 1.3 8.8 2.1zm45.2 7.1c4.9.8 9.3 1.5 9.7 1.5.5 0 .9 11.5.9 25.5V518h-2.2c-1.3-.1-6.3-.9-11.3-1.8l-9-1.7-.3-25.8c-.2-24.3-.1-25.8 1.5-25.3 1 .3 5.8 1.2 10.7 2.1zM56.7 577.7c-.4.3-.7 6.2-.7 13V603H1v46H383.7l8.5-3.9c42.7-19.7 107.4-29.1 239.8-34.6 37.7-1.6 81.9-4.1 90.3-5.1l4.8-.6-.3-13.6-.3-13.7-230.7-.3L265 577v26H144.1l-.3-12.8-.3-12.7-43.1-.3c-23.7-.1-43.4.1-43.7.5z"/></svg>